# xmcd
#
# Track frame offsets: 
#        150
#        26925
#        38151
#        59356
#        81474
#        105626
#        122889
#        139779
#        157727
#        179199
#        199477
#        218227
#        240308
#        255382
#        285889
#        306659
#        329685
#
# Disc length: 4769 seconds
#
# Revision: 2
# Processed by: cddbd v1.5.2PL0 Copyright (c) Steve Scherf et al.
# Submitted via: ExactAudioCopy v1.3
#
DISCID=03129f11
DTITLE=Various Artist - Akella Presents - Vol.41 - Blues Instrumental
DTITLE=CD2
DYEAR=2014
DGENRE=Blues
TTITLE0=Tinsley Ellis - Catalunya
TTITLE1=Demian Band - Kill The Matador
TTITLE2=Melvin Taylor - Comin' Home Baby
TTITLE3=Walter Trout - Through The Eyes Of Love
TTITLE4=Ronnie Earl and The Broadcasters - San-Ho-Zay
TTITLE5=Toth Bagi Band - October
TTITLE6=Guitar Pete - J. B. Shuffle
TTITLE7=Stevie Ray Vaughan - Chitlins Con Carne
TTITLE8=Van Wilks - Koko's Hideaway
TTITLE9=Savoy Brown - 247
TTITLE10=Sunset Heights - Sally Jo
TTITLE11=Jimmy Thackery - Blues 'fore Dawn
TTITLE12=Tony Spinner - Dirty Little Mynx
TTITLE13=Jan Akkerman - Shame On You
TTITLE14=A.L. James and Spare Change - Mr. Boogs
TTITLE15=Greg Serrato - Warrior Of Peace
TTITLE16=Guitar Shorty - The Netherlands
EXTD=
EXTT0=
EXTT1=
EXTT2=
EXTT3=
EXTT4=
EXTT5=
EXTT6=
EXTT7=
EXTT8=
EXTT9=
EXTT10=
EXTT11=
EXTT12=
EXTT13=
EXTT14=
EXTT15=
EXTT16=
PLAYORDER=
